<?xml version="1.0" encoding="UTF-8"?>
<svg xmlns="http://www.w3.org/2000/svg" xmlns:xlink="http://www.w3.org/1999/xlink" width="10px" height="10px" viewBox="0 0 10 10" version="1.1">
<g id="surface1">
<path style=" stroke:none;fill-rule:nonzero;fill:rgb(65,139,255);fill-opacity:1;" d="M 5 0 C 2.238281 0 0 2.238281 0 5 C 0 7.761719 2.238281 10 5 10 C 7.761719 10 10 7.761719 10 5 C 10 2.238281 7.761719 0 5 0 Z M 7.65625 4.0625 L 4.21875 7.5 C 4.125 7.59375 4 7.636719 3.867188 7.636719 C 3.738281 7.636719 3.613281 7.59375 3.519531 7.5 L 1.957031 5.9375 C 1.761719 5.742188 1.761719 5.425781 1.957031 5.230469 C 2.148438 5.039062 2.46875 5.039062 2.664062 5.230469 L 3.738281 6.304688 L 6.636719 3.125 C 6.832031 2.929688 7.148438 2.929688 7.34375 3.125 C 7.539062 3.320312 7.539062 3.636719 7.34375 3.832031 Z M 7.65625 4.0625 "/>
</g>
</svg>
