<?xml version="1.0" encoding="UTF-8"?>
<svg xmlns="http://www.w3.org/2000/svg" xmlns:xlink="http://www.w3.org/1999/xlink" width="14px" height="14px" viewBox="0 0 14 14" version="1.1">
<g id="surface1">
<path style=" stroke:none;fill-rule:nonzero;fill:rgb(65,139,255);fill-opacity:1;" d="M 7 0 C 3.132812 0 0 3.132812 0 7 C 0 10.867188 3.132812 14 7 14 C 10.867188 14 14 10.867188 14 7 C 14 3.132812 10.867188 0 7 0 Z M 10.71875 5.6875 L 5.90625 10.5 C 5.773438 10.632812 5.601562 10.691406 5.417969 10.691406 C 5.234375 10.691406 5.058594 10.632812 4.925781 10.5 L 2.738281 8.3125 C 2.46875 8.042969 2.46875 7.59375 2.738281 7.324219 C 3.011719 7.050781 3.457031 7.050781 3.726562 7.324219 L 5.234375 8.828125 L 9.292969 4.375 C 9.5625 4.105469 10.011719 4.105469 10.28125 4.375 C 10.550781 4.644531 10.550781 5.09375 10.28125 5.363281 Z M 10.71875 5.6875 "/>
</g>
</svg>
