<?xml version="1.0" encoding="UTF-8"?>
<svg xmlns="http://www.w3.org/2000/svg" xmlns:xlink="http://www.w3.org/1999/xlink" width="12px" height="12px" viewBox="0 0 12 12" version="1.1">
<g id="surface1">
<path style=" stroke:none;fill-rule:nonzero;fill:rgb(65,139,255);fill-opacity:1;" d="M 6 0 C 2.683594 0 0 2.683594 0 6 C 0 9.316406 2.683594 12 6 12 C 9.316406 12 12 9.316406 12 6 C 12 2.683594 9.316406 0 6 0 Z M 9.1875 4.875 L 5.0625 9 C 4.949219 9.113281 4.800781 9.164062 4.640625 9.164062 C 4.484375 9.164062 4.335938 9.113281 4.222656 9 L 2.347656 7.125 C 2.113281 6.890625 2.113281 6.511719 2.347656 6.277344 C 2.578125 6.046875 2.960938 6.046875 3.195312 6.277344 L 4.484375 7.566406 L 7.964844 3.75 C 8.199219 3.515625 8.578125 3.515625 8.8125 3.75 C 9.046875 3.984375 9.046875 4.363281 8.8125 4.597656 Z M 9.1875 4.875 "/>
</g>
</svg>
